<svg width="136" height="32" viewBox="0 0 136 32" fill="none" xmlns="http://www.w3.org/2000/svg">
<path d="M136 20.1392C136 20.449 135.897 20.6878 135.691 20.8557C135.497 21.0235 135.214 21.1074 134.84 21.1074H122.543V20.449H132.732C133.171 20.449 133.39 20.2618 133.39 19.8874C133.39 18.0155 132.977 16.5503 132.152 15.4917C131.34 14.4331 130.251 13.9038 128.885 13.9038C127.75 13.9038 126.771 14.2201 125.946 14.8526C125.134 15.4852 124.502 16.3695 124.051 17.5056C123.6 18.6417 123.374 19.9714 123.374 21.4947C123.374 24.1412 123.986 26.1745 125.211 27.5946C126.448 29.0146 128.034 29.7247 129.967 29.7247C131.308 29.7247 132.468 29.3632 133.448 28.6402C134.427 27.9044 135.053 26.9426 135.323 25.7549C135.388 25.6387 135.446 25.5613 135.497 25.5225C135.549 25.4709 135.607 25.4451 135.671 25.4451C135.774 25.4451 135.845 25.4838 135.884 25.5613C135.936 25.6258 135.955 25.7162 135.942 25.8324C135.826 26.8781 135.452 27.8205 134.821 28.6596C134.189 29.4987 133.377 30.1636 132.384 30.6542C131.392 31.1447 130.27 31.39 129.02 31.39C127.409 31.39 125.997 31.035 124.786 30.325C123.587 29.602 122.652 28.5886 121.982 27.2847C121.325 25.9679 120.996 24.4188 120.996 22.6372C120.996 20.8557 121.331 19.2549 122.001 17.8348C122.685 16.4018 123.638 15.2722 124.863 14.446C126.1 13.6069 127.544 13.1873 129.194 13.1873C130.548 13.1873 131.733 13.4842 132.752 14.0781C133.77 14.6719 134.563 15.4917 135.13 16.5374C135.71 17.5831 136 18.7837 136 20.1392Z" fill="white"/>
<path d="M107.521 13.8844V29.3567C107.521 29.5762 107.579 29.7505 107.695 29.8796C107.811 30.0087 107.979 30.0926 108.198 30.1313L109.378 30.325C109.648 30.3895 109.784 30.5057 109.784 30.6735C109.784 30.8801 109.635 30.9834 109.339 30.9834H103.094C102.965 30.9834 102.862 30.9575 102.784 30.9059C102.72 30.8414 102.688 30.7639 102.688 30.6735C102.688 30.5961 102.72 30.5315 102.784 30.4799C102.849 30.4282 102.945 30.3831 103.074 30.3443L104.35 30.1313C104.57 30.0797 104.737 29.9958 104.853 29.8796C104.969 29.7505 105.027 29.5827 105.027 29.3761V15.7241C105.027 15.5562 104.995 15.4336 104.931 15.3561C104.866 15.2658 104.757 15.2206 104.602 15.2206L102.92 15.2012C102.791 15.1883 102.694 15.1625 102.63 15.1238C102.578 15.0721 102.552 15.0076 102.552 14.9301C102.552 14.8526 102.585 14.7881 102.649 14.7365C102.713 14.6719 102.817 14.6203 102.958 14.5815L106.207 13.5746C106.426 13.4971 106.6 13.4455 106.729 13.4197C106.858 13.3938 106.967 13.3809 107.057 13.3809C107.212 13.3809 107.328 13.4261 107.405 13.5165C107.483 13.6069 107.521 13.7295 107.521 13.8844ZM107.135 17.5056L106.748 17.1183L107.521 16.4212C108.888 15.2077 110.074 14.3685 111.079 13.9038C112.097 13.439 113.083 13.2067 114.037 13.2067C115.533 13.2067 116.744 13.6714 117.672 14.6009C118.613 15.5175 119.084 16.8407 119.084 18.5707V29.2018C119.084 29.4729 119.155 29.6924 119.297 29.8602C119.451 30.0151 119.664 30.1184 119.935 30.17L120.959 30.3443C121.101 30.3701 121.204 30.4153 121.269 30.4799C121.333 30.5315 121.365 30.5961 121.365 30.6735C121.365 30.7639 121.327 30.8414 121.249 30.9059C121.185 30.9575 121.082 30.9834 120.94 30.9834H114.656C114.347 30.9834 114.192 30.8801 114.192 30.6735C114.192 30.5057 114.327 30.3895 114.598 30.325L115.836 30.1313C116.119 30.0797 116.312 29.9764 116.416 29.8215C116.532 29.6537 116.59 29.4471 116.59 29.2018V18.8998C116.59 17.441 116.229 16.3631 115.507 15.666C114.798 14.9559 113.863 14.6009 112.703 14.6009C111.994 14.6009 111.24 14.7752 110.441 15.1238C109.655 15.4723 108.81 16.0468 107.908 16.8472L107.135 17.5056Z" fill="white"/>
<path d="M100.714 13.8844V29.3567C100.714 29.5762 100.772 29.7505 100.888 29.8796C101.004 30.0087 101.171 30.0926 101.39 30.1313L102.57 30.325C102.725 30.3508 102.834 30.396 102.899 30.4605C102.963 30.5122 102.995 30.5832 102.995 30.6735C102.995 30.7639 102.957 30.8414 102.879 30.9059C102.815 30.9575 102.705 30.9834 102.551 30.9834H96.286C96.1571 30.9834 96.054 30.9575 95.9767 30.9059C95.9122 30.8414 95.88 30.7639 95.88 30.6735C95.88 30.5961 95.9122 30.5315 95.9767 30.4799C96.0411 30.4282 96.1378 30.3831 96.2667 30.3443L97.5235 30.1313C97.7555 30.0797 97.9231 29.9958 98.0262 29.8796C98.1422 29.7505 98.2002 29.5827 98.2002 29.3761V15.7241C98.2002 15.5562 98.168 15.4336 98.1035 15.3561C98.052 15.2658 97.9424 15.2206 97.7748 15.2206L96.112 15.2012C95.9831 15.1883 95.8864 15.1625 95.822 15.1238C95.7704 15.0721 95.7446 15.0076 95.7446 14.9301C95.7446 14.8526 95.7704 14.7881 95.822 14.7365C95.8864 14.6719 95.996 14.6203 96.1507 14.5815L99.3796 13.5746C99.5988 13.4971 99.7728 13.4455 99.9017 13.4197C100.031 13.3938 100.14 13.3809 100.23 13.3809C100.398 13.3809 100.52 13.4261 100.598 13.5165C100.675 13.6069 100.714 13.7295 100.714 13.8844ZM99.167 9.33374C98.6127 9.33374 98.1551 9.153 97.7942 8.79153C97.4461 8.43005 97.2721 7.98467 97.2721 7.45537C97.2721 6.91316 97.4526 6.46132 97.8135 6.09985C98.1744 5.73837 98.6256 5.55764 99.167 5.55764C99.7341 5.55764 100.198 5.73837 100.559 6.09985C100.92 6.46132 101.1 6.91316 101.1 7.45537C101.1 7.98467 100.914 8.43005 100.54 8.79153C100.179 9.153 99.7212 9.33374 99.167 9.33374Z" fill="white"/>
<path d="M93.6969 3.19516V29.3567C93.6969 29.5762 93.7549 29.7505 93.8709 29.8796C93.9869 30.0087 94.1545 30.0926 94.3736 30.1313L95.5531 30.325C95.7078 30.3508 95.8173 30.396 95.8818 30.4605C95.9462 30.5122 95.9785 30.5832 95.9785 30.6735C95.9785 30.7639 95.9398 30.8414 95.8624 30.9059C95.798 30.9575 95.6884 30.9834 95.5338 30.9834H89.2692C89.1403 30.9834 89.0372 30.9575 88.9598 30.9059C88.8825 30.8414 88.8438 30.7639 88.8438 30.6735C88.8438 30.5961 88.8825 30.5251 88.9598 30.4605C89.0372 30.396 89.1532 30.3508 89.3078 30.325L90.5066 30.1313C90.7258 30.0797 90.8933 29.9958 91.0093 29.8796C91.1254 29.7505 91.1833 29.5827 91.1833 29.3761V5.01543C91.1833 4.86052 91.1511 4.74433 91.0867 4.66687C91.0351 4.5765 90.9256 4.53132 90.758 4.53132L89.0952 4.51195C88.9663 4.49905 88.8696 4.47323 88.8051 4.4345C88.7536 4.38286 88.7278 4.31831 88.7278 4.24085C88.7278 4.16339 88.7536 4.09884 88.8051 4.04721C88.8696 3.98266 88.9791 3.92456 89.1338 3.87292L92.3628 2.88533C92.5819 2.80787 92.7559 2.75623 92.8848 2.73041C93.0137 2.70459 93.1233 2.69168 93.2135 2.69168C93.3682 2.69168 93.4842 2.73687 93.5616 2.82723C93.6518 2.90469 93.6969 3.02734 93.6969 3.19516Z" fill="white"/>
<path d="M84.3134 28.9113V28.679L84.1974 28.6209V17.9316C84.1974 16.589 83.8945 15.5627 83.2887 14.8526C82.6957 14.1426 81.8192 13.7876 80.6591 13.7876C79.4732 13.7876 78.6031 14.0458 78.0488 14.5622C77.4946 15.0657 77.2174 15.6272 77.2174 16.2469V17.4475C77.2174 17.8993 77.0756 18.2479 76.7921 18.4932C76.5214 18.7385 76.1669 18.8611 75.7286 18.8611C75.3419 18.8611 75.0326 18.7385 74.8005 18.4932C74.5814 18.2479 74.4718 17.9123 74.4718 17.4862C74.4718 16.7633 74.7297 16.0791 75.2453 15.4336C75.7609 14.7752 76.5085 14.2394 77.4881 13.8263C78.4807 13.4003 79.6665 13.1873 81.0458 13.1873C82.9535 13.1873 84.3714 13.6327 85.2995 14.5234C86.2276 15.4013 86.6916 16.5826 86.6916 18.0672V28.7952C86.6916 29.3245 86.7819 29.7053 86.9623 29.9377C87.1428 30.1571 87.3748 30.2669 87.6584 30.2669C87.9678 30.2669 88.1998 30.1959 88.3544 30.0539C88.5091 29.8989 88.6187 29.7182 88.6831 29.5117C88.7218 29.46 88.7605 29.4148 88.7992 29.3761C88.8378 29.3374 88.8894 29.318 88.9538 29.318C89.0312 29.318 89.0827 29.3438 89.1085 29.3955C89.1472 29.4342 89.1665 29.5052 89.1665 29.6085C89.1665 29.8538 89.0763 30.1119 88.8958 30.3831C88.7282 30.6542 88.4705 30.8801 88.1224 31.0608C87.7744 31.2545 87.3361 31.3513 86.8076 31.3513C85.9956 31.3513 85.3768 31.1447 84.9515 30.7316C84.5261 30.3185 84.3134 29.7118 84.3134 28.9113ZM73.5631 27.1492C73.5631 25.7807 74.1496 24.6447 75.3226 23.741C76.4956 22.8373 78.152 22.3855 80.2917 22.3855C81.2585 22.3855 82.1092 22.4823 82.8439 22.6759C83.5916 22.8567 84.2683 23.0826 84.8741 23.3537L84.7195 23.8766C84.1265 23.6313 83.5013 23.4247 82.8439 23.2569C82.1866 23.0761 81.4647 22.9858 80.6784 22.9858C79.2476 22.9858 78.1391 23.3279 77.3528 24.0121C76.5794 24.6963 76.1927 25.6065 76.1927 26.7425C76.1927 27.8527 76.5214 28.7242 77.1788 29.3567C77.849 29.9764 78.7062 30.2862 79.7503 30.2862C80.6526 30.2862 81.5292 30.0926 82.3799 29.7053C83.2435 29.3051 83.9847 28.7177 84.6034 27.9431L84.8935 28.3885C84.1716 29.3438 83.2564 30.0797 82.1479 30.5961C81.0522 31.0995 79.8792 31.3513 78.6289 31.3513C77.1208 31.3513 75.8962 30.9704 74.9552 30.2088C74.0271 29.4471 73.5631 28.4272 73.5631 27.1492Z" fill="white"/>
<path d="M65.9371 13.9038C64.893 13.9038 64.0487 14.1878 63.4042 14.7558C62.7597 15.3239 62.4375 16.0791 62.4375 17.0215C62.4375 17.6153 62.5793 18.1511 62.8628 18.6287C63.1464 19.0935 63.6233 19.5195 64.2936 19.9068C64.9639 20.2812 65.8984 20.6427 67.0972 20.9912C68.5667 21.4172 69.7332 21.9014 70.5969 22.4436C71.4605 22.9858 72.0792 23.6054 72.453 24.3026C72.8269 24.9868 73.0138 25.7485 73.0138 26.5876C73.0138 28.0464 72.4982 29.2147 71.4669 30.0926C70.4357 30.9575 69.0178 31.39 67.2132 31.39C66.4656 31.39 65.8404 31.3126 65.3377 31.1576C64.8479 31.0156 64.4483 30.8736 64.1389 30.7316C63.8425 30.5896 63.604 30.5186 63.4235 30.5186C63.2431 30.5186 63.0691 30.5961 62.9015 30.751C62.7339 30.893 62.5793 31.035 62.4375 31.177C62.2957 31.319 62.1603 31.39 62.0314 31.39C61.9541 31.39 61.8832 31.3642 61.8187 31.3126C61.7672 31.2609 61.7156 31.1641 61.6641 31.0221L60.2333 26.4133C60.1817 26.2455 60.1624 26.1035 60.1753 25.9873C60.201 25.8582 60.2719 25.7678 60.3879 25.7162C60.5168 25.6645 60.6264 25.6645 60.7166 25.7162C60.8198 25.7678 60.8971 25.8582 60.9487 25.9873C61.49 27.1621 62.0765 28.0916 62.7082 28.7758C63.3527 29.46 64.0423 29.9506 64.777 30.2475C65.5117 30.5315 66.298 30.6735 67.1359 30.6735C68.412 30.6735 69.3916 30.3766 70.0748 29.7828C70.758 29.1889 71.0996 28.4079 71.0996 27.4396C71.0996 26.8587 70.9578 26.3294 70.6742 25.8517C70.4035 25.3612 69.9137 24.9158 69.2047 24.5156C68.4958 24.1025 67.4968 23.7152 66.2078 23.3537C64.8415 22.9793 63.7458 22.5404 62.9208 22.0369C62.0959 21.5205 61.4965 20.9202 61.1227 20.236C60.7489 19.5389 60.562 18.7385 60.562 17.8348C60.562 16.9182 60.7811 16.1113 61.2193 15.4142C61.6576 14.7042 62.2763 14.1555 63.0755 13.7682C63.8747 13.368 64.8157 13.1679 65.8984 13.1679C66.6203 13.1679 67.2261 13.2648 67.7159 13.4584C68.2058 13.6391 68.6054 13.8263 68.9147 14.02C69.237 14.2007 69.4754 14.2911 69.6301 14.2911C69.7977 14.2911 69.9459 14.2007 70.0748 14.02C70.2166 13.8392 70.3455 13.6585 70.4615 13.4778C70.5904 13.297 70.7193 13.2067 70.8482 13.2067C70.9256 13.2067 70.9965 13.2325 71.0609 13.2841C71.1254 13.3358 71.1705 13.4326 71.1963 13.5746L72.3564 17.8154C72.4208 18.022 72.4466 18.1963 72.4337 18.3383C72.4337 18.4803 72.3628 18.5836 72.221 18.6481C72.105 18.6868 72.0019 18.6739 71.9117 18.6094C71.8343 18.5319 71.757 18.4157 71.6796 18.2608C70.9449 16.66 70.0684 15.5369 69.0501 14.8914C68.0317 14.233 66.9941 13.9038 65.9371 13.9038Z" fill="white"/>
<path d="M51.2476 13.2067C52.9362 13.2067 54.4314 13.5939 55.7333 14.3685C57.0481 15.1431 58.0793 16.2211 58.8269 17.6024C59.5745 18.9709 59.9484 20.5458 59.9484 22.3274C59.9484 24.096 59.5681 25.6645 58.8076 27.033C58.06 28.3885 57.0223 29.4536 55.6946 30.2281C54.3799 31.0027 52.8588 31.39 51.1316 31.39C49.443 31.39 47.9477 31.0092 46.6458 30.2475C45.3439 29.4729 44.3192 28.4014 43.5715 27.033C42.8368 25.6645 42.4694 24.096 42.4694 22.3274C42.4694 20.5458 42.8368 18.9709 43.5715 17.6024C44.3192 16.234 45.3504 15.1625 46.6651 14.3879C47.9799 13.6004 49.5074 13.2067 51.2476 13.2067ZM52.3497 30.5573C53.5613 30.4153 54.5668 29.9699 55.3659 29.2212C56.1651 28.4595 56.7323 27.4332 57.0674 26.1422C57.4026 24.8383 57.467 23.3279 57.2608 21.6109C57.0417 19.8423 56.6034 18.3706 55.946 17.1958C55.2886 16.021 54.4572 15.1689 53.4518 14.6396C52.4463 14.0974 51.3185 13.8973 50.0681 14.0393C48.8307 14.1684 47.8059 14.6203 46.9938 15.3949C46.1947 16.1565 45.6339 17.1893 45.3117 18.4932C45.0023 19.7842 44.9508 21.2817 45.157 22.9858C45.3761 24.7157 45.8209 26.168 46.4911 27.3428C47.1614 28.5176 47.9993 29.3826 49.0047 29.9377C50.0101 30.4799 51.1251 30.6864 52.3497 30.5573Z" fill="white"/>
<path d="M7.54069 31.7095L7.49235 31.8064C7.36345 31.9355 7.18621 32 6.96063 32C6.73506 32 5.94554 31.7257 4.59208 31.177C6.42892 25.529 9.16806 18.8159 12.8095 11.0378L17.2566 1.64599C16.4832 1.29097 15.4197 1.11346 14.0663 1.11346C12.3261 1.11346 10.441 1.53303 8.41077 2.37216C6.41281 3.17902 4.65654 4.30862 3.14195 5.76097C1.6596 7.21331 0.918417 8.73021 0.918417 10.3116C0.918417 12.1836 1.82072 13.7005 3.62533 14.8623L2.70691 15.298C0.902304 14.0393 0 12.4256 0 10.4569C0 8.64952 0.789516 6.95512 2.36855 5.37368C3.94758 3.75996 5.88109 2.5174 8.16908 1.64599C10.4893 0.742309 12.7934 0.290468 15.0814 0.290468C16.3382 0.290468 17.8044 0.5648 19.4801 1.11346C21.188 1.66213 22.2192 2.29148 22.5737 3.00151C22.0259 4.6475 18.8839 10.7312 13.1479 21.2526C18.8517 13.4745 22.6059 8.64952 24.4106 6.77761C28.8254 2.2592 32.4185 0 35.1899 0C36.4144 0 37.494 0.371155 38.4285 1.11346C39.363 1.85577 40.0881 2.80787 40.6037 3.96974C40.4426 5.9062 39.8625 7.69743 38.8635 9.34342C37.8646 10.9894 36.6239 12.3772 35.1415 13.5068C33.6914 14.6041 32.0318 15.5562 30.1627 16.3631C28.2937 17.1699 26.4407 17.767 24.6039 18.1543C22.7993 18.5416 21.0269 18.7837 19.2868 18.8805C20.4469 20.6233 21.9614 22.2209 23.8305 23.6732C25.6996 25.0933 27.5525 26.1906 29.3893 26.9652C31.484 26.2874 34.9804 24.351 39.8786 21.1558L43.939 18.4932L44.2774 19.1225L40.362 21.7852C39.363 22.4629 38.1707 23.2859 36.785 24.2542C35.4316 25.1901 34.3842 25.9163 33.6431 26.4327C32.9341 26.9168 32.0963 27.4816 31.1295 28.1271C30.1627 28.7726 29.3893 29.2567 28.8093 29.5794C28.2615 29.9022 27.6492 30.2088 26.9725 30.4992C26.328 30.822 25.764 31.0479 25.2806 31.177C24.7973 31.3061 24.33 31.3706 23.8788 31.3706C22.4287 31.3706 21.043 30.1281 19.7218 27.643C18.4328 25.1256 17.9977 22.1241 18.4167 18.6384L18.9001 18.2995C21.1558 17.9445 23.2666 17.2506 25.2323 16.2179C27.2303 15.1528 28.8576 13.9909 30.1144 12.7322C31.4034 11.4412 32.5152 10.1019 33.4497 8.71407C34.3842 7.294 35.061 6.05144 35.4799 4.98638C35.8988 3.88906 36.1083 3.03379 36.1083 2.42058C36.1083 1.45234 35.6571 0.968229 34.7548 0.968229C29.341 0.968229 20.5919 10.6989 8.50744 30.1604C8.21741 30.6445 8.02406 30.9672 7.92739 31.1286C7.73404 31.4513 7.60514 31.645 7.54069 31.7095Z" fill="white"/>
</svg>
