<svg width="1920" height="514" viewBox="0 0 1920 514" fill="none" xmlns="http://www.w3.org/2000/svg">
<path d="M1840 260.551C1840 264.559 1838.67 267.649 1836 269.82C1833.49 271.992 1829.82 273.077 1824.99 273.077H1665.85V264.559H1797.71C1803.38 264.559 1806.22 262.137 1806.22 257.294C1806.22 233.076 1800.88 214.119 1790.21 200.424C1779.7 186.728 1765.6 179.88 1747.92 179.88C1733.24 179.88 1720.56 183.972 1709.89 192.156C1699.38 200.34 1691.2 211.781 1685.36 226.479C1679.53 241.176 1676.61 258.379 1676.61 278.088C1676.61 312.327 1684.53 338.632 1700.38 357.005C1716.39 375.377 1736.91 384.563 1761.93 384.563C1779.28 384.563 1794.29 379.886 1806.97 370.533C1819.65 361.013 1827.74 348.57 1831.24 333.204C1832.08 331.701 1832.83 330.699 1833.49 330.198C1834.16 329.53 1834.91 329.196 1835.75 329.196C1837.08 329.196 1838 329.697 1838.5 330.699C1839.17 331.534 1839.42 332.703 1839.25 334.206C1837.75 347.735 1832.91 359.927 1824.74 370.784C1816.56 381.64 1806.05 390.241 1793.21 396.588C1780.36 402.935 1765.85 406.108 1749.67 406.108C1728.82 406.108 1710.55 401.515 1694.87 392.329C1679.36 382.976 1667.27 369.865 1658.59 352.996C1650.08 335.96 1645.83 315.918 1645.83 292.869C1645.83 269.82 1650.17 249.11 1658.84 230.738C1667.68 212.199 1680.03 197.584 1695.87 186.895C1711.89 176.039 1730.57 170.611 1751.92 170.611C1769.44 170.611 1784.79 174.452 1797.96 182.135C1811.14 189.818 1821.4 200.424 1828.74 213.952C1836.25 227.481 1840 243.014 1840 260.551Z" fill="white"/>
<path d="M1471.45 179.63V379.803C1471.45 382.642 1472.2 384.897 1473.71 386.567C1475.21 388.237 1477.38 389.323 1480.21 389.824L1495.47 392.329C1498.98 393.164 1500.73 394.667 1500.73 396.839C1500.73 399.511 1498.81 400.847 1494.97 400.847H1414.15C1412.49 400.847 1411.15 400.513 1410.15 399.845C1409.32 399.01 1408.9 398.008 1408.9 396.839C1408.9 395.837 1409.32 395.002 1410.15 394.333C1410.98 393.665 1412.24 393.081 1413.9 392.58L1430.42 389.824C1433.25 389.156 1435.42 388.07 1436.92 386.567C1438.43 384.897 1439.18 382.726 1439.18 380.053V203.43C1439.18 201.259 1438.76 199.672 1437.92 198.67C1437.09 197.501 1435.67 196.916 1433.67 196.916L1411.9 196.666C1410.23 196.499 1408.98 196.165 1408.15 195.664C1407.48 194.995 1407.15 194.16 1407.15 193.158C1407.15 192.156 1407.56 191.321 1408.4 190.653C1409.23 189.818 1410.57 189.15 1412.4 188.649L1454.44 175.621C1457.27 174.619 1459.53 173.951 1461.19 173.617C1462.86 173.283 1464.28 173.116 1465.45 173.116C1467.45 173.116 1468.95 173.7 1469.95 174.87C1470.95 176.039 1471.45 177.625 1471.45 179.63ZM1466.45 226.479L1461.45 221.468L1471.45 212.449C1489.14 196.749 1504.48 185.893 1517.49 179.88C1530.67 173.867 1543.43 170.861 1555.78 170.861C1575.13 170.861 1590.81 176.874 1602.82 188.899C1615 200.758 1621.08 217.877 1621.08 240.258V377.798C1621.08 381.306 1622 384.145 1623.84 386.316C1625.84 388.321 1628.59 389.657 1632.09 390.325L1645.36 392.58C1647.19 392.914 1648.53 393.498 1649.36 394.333C1650.19 395.002 1650.61 395.837 1650.61 396.839C1650.61 398.008 1650.11 399.01 1649.11 399.845C1648.28 400.513 1646.94 400.847 1645.11 400.847H1563.78C1559.78 400.847 1557.78 399.511 1557.78 396.839C1557.78 394.667 1559.53 393.164 1563.03 392.329L1579.05 389.824C1582.72 389.156 1585.22 387.82 1586.55 385.815C1588.06 383.644 1588.81 380.972 1588.81 377.798V244.517C1588.81 225.644 1584.14 211.697 1574.79 202.678C1565.62 193.492 1553.53 188.899 1538.51 188.899C1529.34 188.899 1519.58 191.154 1509.24 195.664C1499.06 200.173 1488.14 207.605 1476.46 217.961L1466.45 226.479Z" fill="white"/>
<path d="M1383.35 179.63V379.803C1383.35 382.642 1384.11 384.897 1385.61 386.567C1387.11 388.237 1389.28 389.323 1392.11 389.824L1407.38 392.329C1409.38 392.663 1410.8 393.248 1411.63 394.083C1412.46 394.751 1412.88 395.67 1412.88 396.839C1412.88 398.008 1412.38 399.01 1411.38 399.845C1410.54 400.513 1409.13 400.847 1407.13 400.847H1326.05C1324.39 400.847 1323.05 400.513 1322.05 399.845C1321.22 399.01 1320.8 398.008 1320.8 396.839C1320.8 395.837 1321.22 395.001 1322.05 394.333C1322.88 393.665 1324.14 393.081 1325.8 392.58L1342.07 389.824C1345.07 389.156 1347.24 388.07 1348.57 386.567C1350.08 384.897 1350.83 382.726 1350.83 380.053V203.43C1350.83 201.259 1350.41 199.672 1349.57 198.67C1348.91 197.501 1347.49 196.916 1345.32 196.916L1323.8 196.666C1322.13 196.499 1320.88 196.165 1320.05 195.664C1319.38 194.995 1319.05 194.16 1319.05 193.158C1319.05 192.156 1319.38 191.321 1320.05 190.653C1320.88 189.818 1322.3 189.15 1324.3 188.649L1366.09 175.621C1368.93 174.619 1371.18 173.951 1372.85 173.617C1374.51 173.283 1375.93 173.116 1377.1 173.116C1379.27 173.116 1380.85 173.7 1381.85 174.87C1382.85 176.039 1383.35 177.625 1383.35 179.63ZM1363.34 120.755C1356.16 120.755 1350.24 118.417 1345.57 113.74C1341.07 109.064 1338.82 103.302 1338.82 96.4538C1338.82 89.439 1341.15 83.5933 1345.82 78.9168C1350.49 74.2402 1356.33 71.9019 1363.34 71.9019C1370.68 71.9019 1376.68 74.2402 1381.35 78.9168C1386.02 83.5933 1388.36 89.439 1388.36 96.4538C1388.36 103.302 1385.94 109.064 1381.1 113.74C1376.43 118.417 1370.51 120.755 1363.34 120.755Z" fill="white"/>
<path d="M1292.55 41.3374V379.803C1292.55 382.642 1293.3 384.897 1294.8 386.567C1296.3 388.237 1298.47 389.323 1301.31 389.824L1316.57 392.329C1318.57 392.663 1319.99 393.248 1320.82 394.083C1321.66 394.751 1322.07 395.67 1322.07 396.839C1322.07 398.008 1321.57 399.01 1320.57 399.845C1319.74 400.513 1318.32 400.847 1316.32 400.847H1235.25C1233.58 400.847 1232.25 400.513 1231.24 399.845C1230.24 399.01 1229.74 398.008 1229.74 396.839C1229.74 395.837 1230.24 394.918 1231.24 394.083C1232.25 393.248 1233.75 392.663 1235.75 392.329L1251.26 389.824C1254.1 389.156 1256.27 388.07 1257.77 386.567C1259.27 384.897 1260.02 382.726 1260.02 380.053V64.8872C1260.02 62.883 1259.6 61.3798 1258.77 60.3777C1258.1 59.2085 1256.68 58.6239 1254.52 58.6239L1233 58.3734C1231.33 58.2064 1230.08 57.8724 1229.24 57.3713C1228.58 56.7032 1228.24 55.8681 1228.24 54.866C1228.24 53.8639 1228.58 53.0288 1229.24 52.3607C1230.08 51.5256 1231.49 50.774 1233.5 50.1059L1275.28 37.3289C1278.12 36.3268 1280.37 35.6587 1282.04 35.3247C1283.71 34.9907 1285.13 34.8236 1286.29 34.8236C1288.29 34.8236 1289.8 35.4082 1290.8 36.5773C1291.96 37.5795 1292.55 39.1662 1292.55 41.3374Z" fill="white"/>
<path d="M1171.11 374.041V371.034L1169.61 370.283V231.99C1169.61 214.62 1165.69 201.342 1157.85 192.156C1150.18 182.97 1138.84 178.377 1123.82 178.377C1108.48 178.377 1097.22 181.717 1090.04 188.398C1082.87 194.912 1079.28 202.177 1079.28 210.194V225.727C1079.28 231.573 1077.45 236.082 1073.78 239.256C1070.28 242.429 1065.69 244.016 1060.02 244.016C1055.01 244.016 1051.01 242.429 1048.01 239.256C1045.17 236.082 1043.75 231.74 1043.75 226.228C1043.75 216.875 1047.09 208.023 1053.76 199.672C1060.43 191.154 1070.11 184.223 1082.79 178.878C1095.63 173.366 1110.98 170.611 1128.83 170.611C1153.52 170.611 1171.87 176.373 1183.88 187.897C1195.89 199.254 1201.89 214.537 1201.89 233.744V372.537C1201.89 379.385 1203.06 384.312 1205.39 387.319C1207.73 390.158 1210.73 391.578 1214.4 391.578C1218.41 391.578 1221.41 390.659 1223.41 388.822C1225.41 386.818 1226.83 384.479 1227.66 381.807C1228.16 381.139 1228.67 380.554 1229.17 380.053C1229.67 379.552 1230.33 379.302 1231.17 379.302C1232.17 379.302 1232.84 379.636 1233.17 380.304C1233.67 380.805 1233.92 381.723 1233.92 383.06C1233.92 386.233 1232.75 389.573 1230.42 393.081C1228.25 396.588 1224.91 399.511 1220.41 401.849C1215.9 404.355 1210.23 405.607 1203.39 405.607C1192.88 405.607 1184.88 402.935 1179.37 397.59C1173.87 392.246 1171.11 384.396 1171.11 374.041ZM1031.99 351.242C1031.99 333.538 1039.58 318.841 1054.76 307.149C1069.94 295.458 1091.38 289.612 1119.07 289.612C1131.58 289.612 1142.59 290.865 1152.1 293.37C1161.77 295.708 1170.53 298.631 1178.37 302.139L1176.37 308.903C1168.7 305.73 1160.61 303.057 1152.1 300.886C1143.59 298.548 1134.25 297.379 1124.07 297.379C1105.56 297.379 1091.21 301.805 1081.04 310.657C1071.03 319.509 1066.02 331.284 1066.02 345.981C1066.02 360.345 1070.28 371.619 1078.78 379.803C1087.46 387.82 1098.55 391.828 1112.06 391.828C1123.74 391.828 1135.08 389.323 1146.09 384.312C1157.27 379.135 1166.86 371.535 1174.87 361.514L1178.62 367.276C1169.28 379.636 1157.44 389.156 1143.09 395.837C1128.91 402.35 1113.73 405.607 1097.55 405.607C1078.03 405.607 1062.19 400.68 1050.01 390.826C1038 380.972 1031.99 367.777 1031.99 351.242Z" fill="white"/>
<path d="M933.304 179.88C919.792 179.88 908.866 183.555 900.525 190.903C892.185 198.252 888.014 208.023 888.014 220.215C888.014 227.898 889.849 234.83 893.519 241.009C897.189 247.022 903.361 252.534 912.035 257.544C920.709 262.388 932.803 267.064 948.317 271.574C967.334 277.086 982.43 283.349 993.607 290.364C1004.78 297.379 1012.79 305.395 1017.63 314.415C1022.47 323.267 1024.88 333.121 1024.88 343.977C1024.88 362.85 1018.21 377.966 1004.87 389.323C991.521 400.513 973.172 406.108 949.818 406.108C940.143 406.108 932.053 405.106 925.547 403.102C919.208 401.265 914.037 399.428 910.033 397.59C906.197 395.753 903.111 394.834 900.775 394.834C898.44 394.834 896.188 395.837 894.019 397.841C891.851 399.678 889.849 401.515 888.014 403.352C886.179 405.19 884.428 406.108 882.76 406.108C881.759 406.108 880.841 405.774 880.007 405.106C879.34 404.438 878.673 403.185 878.005 401.348L859.489 341.722C858.822 339.551 858.572 337.714 858.739 336.211C859.072 334.54 859.99 333.371 861.491 332.703C863.159 332.035 864.577 332.035 865.745 332.703C867.079 333.371 868.08 334.54 868.747 336.211C875.753 351.409 883.343 363.435 891.517 372.287C899.858 381.139 908.782 387.486 918.291 391.327C927.799 395.002 937.975 396.839 948.817 396.839C965.332 396.839 978.01 392.997 986.851 385.314C995.692 377.631 1000.11 367.527 1000.11 355C1000.11 347.484 998.277 340.637 994.607 334.457C991.104 328.11 984.765 322.348 975.591 317.17C966.416 311.826 953.488 306.815 936.807 302.139C919.125 297.295 904.946 291.616 894.27 285.103C883.594 278.422 875.837 270.655 870.999 261.803C866.162 252.784 863.743 242.429 863.743 230.738C863.743 218.879 866.579 208.441 872.25 199.421C877.922 190.235 885.929 183.137 896.271 178.126C906.614 172.949 918.791 170.36 932.803 170.36C942.145 170.36 949.985 171.613 956.324 174.118C962.663 176.456 967.834 178.878 971.838 181.383C976.008 183.722 979.094 184.891 981.096 184.891C983.264 184.891 985.183 183.722 986.851 181.383C988.686 179.045 990.354 176.707 991.855 174.369C993.523 172.03 995.191 170.861 996.859 170.861C997.86 170.861 998.778 171.195 999.612 171.863C1000.45 172.531 1001.03 173.784 1001.36 175.621L1016.38 230.487C1017.21 233.159 1017.54 235.414 1017.38 237.251C1017.38 239.089 1016.46 240.425 1014.62 241.26C1013.12 241.761 1011.79 241.594 1010.62 240.759C1009.62 239.757 1008.62 238.254 1007.62 236.249C998.11 215.539 986.767 201.008 973.589 192.657C960.411 184.139 946.982 179.88 933.304 179.88Z" fill="white"/>
<path d="M743.204 170.861C765.056 170.861 784.407 175.872 801.255 185.893C818.269 195.914 831.614 209.86 841.29 227.731C850.965 245.435 855.802 265.812 855.802 288.861C855.802 311.742 850.881 332.035 841.039 349.739C831.364 367.276 817.936 381.055 800.754 391.077C783.739 401.098 764.055 406.108 741.703 406.108C719.85 406.108 700.5 401.181 683.652 391.327C666.804 381.306 653.542 367.443 643.867 349.739C634.359 332.035 629.604 311.742 629.604 288.861C629.604 265.812 634.359 245.435 643.867 227.731C653.542 210.027 666.887 196.165 683.902 186.143C700.917 175.955 720.684 170.861 743.204 170.861ZM757.466 395.336C773.147 393.498 786.158 387.736 796.5 378.049C806.843 368.195 814.183 354.917 818.52 338.215C822.857 321.346 823.691 301.805 821.022 279.591C818.186 256.709 812.514 237.669 804.007 222.47C795.5 207.271 784.74 196.248 771.729 189.4C758.717 182.385 744.121 179.797 727.941 181.634C711.927 183.304 698.665 189.15 688.156 199.171C677.813 209.025 670.557 222.387 666.387 239.256C662.383 255.958 661.716 275.332 664.385 297.379C667.221 319.759 672.976 338.549 681.65 353.748C690.324 368.946 701.167 380.137 714.178 387.319C727.19 394.333 741.619 397.006 757.466 395.336Z" fill="white"/>
<path d="M177.585 410.242L176.96 411.495C175.292 413.165 172.998 414 170.079 414C167.16 414 156.942 410.451 139.427 403.352C163.198 330.281 198.645 243.431 245.77 142.802L303.32 21.295C293.312 16.702 279.55 14.4054 262.034 14.4054C239.515 14.4054 215.118 19.8336 188.845 30.6899C162.989 41.1286 140.261 55.7428 120.661 74.5325C101.477 93.3222 91.8854 112.947 91.8854 133.407C91.8854 157.625 103.562 177.25 126.916 192.281L115.031 197.918C91.6769 181.634 80 160.756 80 135.286C80 111.903 90.2173 89.9818 110.652 69.5219C131.086 48.6445 156.108 32.5688 185.717 21.295C215.744 9.60363 245.561 3.75792 275.171 3.75792C291.435 3.75792 310.41 7.3071 332.095 14.4054C354.198 21.5038 367.543 29.646 372.131 38.8321C365.041 60.1271 324.38 138.835 250.149 274.956C323.963 174.327 372.548 111.903 395.901 87.6853C453.035 29.2284 499.534 0 535.398 0C551.245 0 565.216 4.80182 577.31 14.4054C589.404 24.0091 598.787 36.3268 605.46 51.3586C603.374 76.4115 595.868 99.5855 582.94 120.88C570.012 142.175 553.956 160.13 534.773 174.744C516.006 188.941 494.529 201.259 470.341 211.697C446.154 222.136 422.174 229.861 398.403 234.871C375.05 239.882 352.113 243.014 329.593 244.266C344.606 266.814 364.207 287.483 388.395 306.272C412.583 324.644 436.562 338.841 460.333 348.862C487.44 340.094 532.688 315.041 596.076 273.703L648.622 239.256L653.001 247.398L602.332 281.846C589.404 290.614 573.974 301.262 556.041 313.788C538.526 325.897 524.973 335.292 515.381 341.973C506.206 348.236 495.363 355.543 482.852 363.894C470.341 372.245 460.333 378.508 452.826 382.684C445.737 386.859 437.813 390.826 429.055 394.584C420.715 398.759 413.417 401.682 407.161 403.352C400.906 405.023 394.859 405.858 389.02 405.858C370.254 405.858 352.322 389.782 335.223 357.631C318.542 325.062 312.912 286.23 318.333 241.135L324.589 236.75C353.781 232.157 381.097 223.18 406.536 209.818C432.392 196.039 453.452 181.008 469.716 164.723C486.397 148.021 500.785 130.693 512.879 112.738C524.973 94.3661 533.73 78.2905 539.152 64.5114C544.573 50.3147 547.284 39.2496 547.284 31.3162C547.284 18.7897 541.445 12.5265 529.768 12.5265C459.707 12.5265 346.483 138.418 190.096 390.2C186.343 396.463 183.841 400.638 182.59 402.726C180.088 406.902 178.419 409.407 177.585 410.242Z" fill="white"/>
</svg>
