<svg width="204" height="48" viewBox="0 0 204 48" fill="none" xmlns="http://www.w3.org/2000/svg">
<path d="M204 30.2088C204 30.6735 203.845 31.0318 203.536 31.2835C203.246 31.5353 202.821 31.6611 202.26 31.6611H183.814V30.6735H199.099C199.756 30.6735 200.085 30.3927 200.085 29.8312C200.085 27.0233 199.466 24.8254 198.228 23.2375C197.01 21.6496 195.377 20.8557 193.327 20.8557C191.626 20.8557 190.156 21.3301 188.919 22.279C187.701 23.2278 186.753 24.5543 186.076 26.2584C185.4 27.9625 185.061 29.957 185.061 32.2421C185.061 36.2118 185.98 39.2617 187.817 41.3918C189.673 43.5219 192.051 44.587 194.951 44.587C196.962 44.587 198.702 44.0448 200.172 42.9604C201.641 41.8566 202.579 40.4139 202.985 38.6324C203.082 38.4581 203.169 38.3419 203.246 38.2838C203.323 38.2064 203.41 38.1676 203.507 38.1676C203.662 38.1676 203.768 38.2257 203.826 38.3419C203.903 38.4387 203.932 38.5743 203.913 38.7486C203.739 40.3171 203.178 41.7307 202.231 42.9894C201.283 44.2481 200.065 45.2454 198.577 45.9812C197.088 46.7171 195.406 47.085 193.53 47.085C191.113 47.085 188.996 46.5525 187.178 45.4874C185.38 44.403 183.979 42.8829 182.973 40.9271C181.987 38.9519 181.494 36.6281 181.494 33.9558C181.494 31.2835 181.997 28.8823 183.002 26.7522C184.027 24.6027 185.458 22.9083 187.294 21.669C189.151 20.4103 191.316 19.7809 193.791 19.7809C195.821 19.7809 197.6 20.2263 199.128 21.1171C200.655 22.0079 201.844 23.2375 202.695 24.8061C203.565 26.3746 204 28.1755 204 30.2088Z" fill="black"/>
<path d="M161.282 20.8266V44.0351C161.282 44.3643 161.369 44.6257 161.543 44.8194C161.717 45.013 161.969 45.1389 162.297 45.197L164.066 45.4874C164.472 45.5843 164.675 45.7585 164.675 46.0103C164.675 46.3201 164.453 46.475 164.008 46.475H154.641C154.447 46.475 154.293 46.4363 154.177 46.3589C154.08 46.262 154.031 46.1458 154.031 46.0103C154.031 45.8941 154.08 45.7973 154.177 45.7198C154.273 45.6424 154.418 45.5746 154.612 45.5165L156.526 45.197C156.854 45.1195 157.106 44.9936 157.28 44.8194C157.454 44.6257 157.541 44.374 157.541 44.0641V23.5861C157.541 23.3343 157.492 23.1504 157.396 23.0342C157.299 22.8986 157.135 22.8309 156.903 22.8309L154.38 22.8018C154.186 22.7825 154.041 22.7437 153.944 22.6856C153.867 22.6082 153.828 22.5113 153.828 22.3952C153.828 22.279 153.877 22.1822 153.973 22.1047C154.07 22.0079 154.225 21.9304 154.438 21.8723L159.31 20.3619C159.639 20.2457 159.9 20.1682 160.093 20.1295C160.286 20.0908 160.451 20.0714 160.586 20.0714C160.818 20.0714 160.992 20.1392 161.108 20.2747C161.224 20.4103 161.282 20.5943 161.282 20.8266ZM160.702 26.2584L160.122 25.6775L161.282 24.6318C163.332 22.8115 165.111 21.5528 166.619 20.8557C168.146 20.1586 169.625 19.81 171.056 19.81C173.299 19.81 175.116 20.5071 176.509 21.9014C177.92 23.2763 178.626 25.2611 178.626 27.856V43.8027C178.626 44.2094 178.732 44.5386 178.945 44.7903C179.177 45.0227 179.496 45.1776 179.902 45.2551L181.439 45.5165C181.652 45.5552 181.806 45.623 181.903 45.7198C182 45.7973 182.048 45.8941 182.048 46.0103C182.048 46.1458 181.99 46.262 181.874 46.3589C181.777 46.4363 181.623 46.475 181.41 46.475H171.984C171.52 46.475 171.288 46.3201 171.288 46.0103C171.288 45.7585 171.491 45.5843 171.897 45.4874L173.753 45.197C174.179 45.1195 174.469 44.9646 174.623 44.7322C174.797 44.4805 174.884 44.1707 174.884 43.8027V28.3498C174.884 26.1616 174.343 24.5446 173.26 23.4989C172.197 22.4339 170.795 21.9014 169.055 21.9014C167.991 21.9014 166.86 22.1628 165.662 22.6856C164.482 23.2085 163.216 24.0702 161.862 25.2708L160.702 26.2584Z" fill="black"/>
<path d="M151.071 20.8266V44.0351C151.071 44.3643 151.158 44.6257 151.332 44.8194C151.506 45.013 151.757 45.1389 152.086 45.197L153.855 45.4874C154.087 45.5262 154.251 45.5939 154.348 45.6908C154.445 45.7682 154.493 45.8747 154.493 46.0103C154.493 46.1458 154.435 46.262 154.319 46.3588C154.222 46.4363 154.058 46.475 153.826 46.475H144.429C144.236 46.475 144.081 46.4363 143.965 46.3588C143.868 46.262 143.82 46.1458 143.82 46.0103C143.82 45.8941 143.868 45.7973 143.965 45.7198C144.062 45.6424 144.207 45.5746 144.4 45.5165L146.285 45.197C146.633 45.1195 146.885 44.9936 147.039 44.8194C147.213 44.6257 147.3 44.374 147.3 44.0641V23.5861C147.3 23.3343 147.252 23.1504 147.155 23.0342C147.078 22.8986 146.914 22.8309 146.662 22.8309L144.168 22.8018C143.975 22.7824 143.83 22.7437 143.733 22.6856C143.656 22.6082 143.617 22.5113 143.617 22.3952C143.617 22.279 143.656 22.1821 143.733 22.1047C143.83 22.0079 143.994 21.9304 144.226 21.8723L149.069 20.3619C149.398 20.2457 149.659 20.1682 149.853 20.1295C150.046 20.0908 150.21 20.0714 150.346 20.0714C150.597 20.0714 150.781 20.1392 150.897 20.2747C151.013 20.4103 151.071 20.5942 151.071 20.8266ZM148.75 14.0006C147.919 14.0006 147.233 13.7295 146.691 13.1873C146.169 12.6451 145.908 11.977 145.908 11.1831C145.908 10.3697 146.179 9.69198 146.72 9.14977C147.262 8.60756 147.938 8.33646 148.75 8.33646C149.601 8.33646 150.297 8.60756 150.839 9.14977C151.38 9.69198 151.651 10.3697 151.651 11.1831C151.651 11.977 151.37 12.6451 150.81 13.1873C150.268 13.7295 149.582 14.0006 148.75 14.0006Z" fill="black"/>
<path d="M140.545 4.79274V44.0351C140.545 44.3643 140.632 44.6257 140.806 44.8194C140.98 45.013 141.232 45.1389 141.56 45.197L143.33 45.4874C143.562 45.5262 143.726 45.594 143.823 45.6908C143.919 45.7682 143.968 45.8747 143.968 46.0103C143.968 46.1458 143.91 46.262 143.794 46.3589C143.697 46.4363 143.533 46.475 143.301 46.475H133.904C133.71 46.475 133.556 46.4363 133.44 46.3589C133.324 46.262 133.266 46.1458 133.266 46.0103C133.266 45.8941 133.324 45.7876 133.44 45.6908C133.556 45.594 133.73 45.5262 133.962 45.4874L135.76 45.197C136.089 45.1195 136.34 44.9936 136.514 44.8194C136.688 44.6257 136.775 44.374 136.775 44.0642V7.52315C136.775 7.29078 136.727 7.1165 136.63 7.00031C136.553 6.86476 136.388 6.79698 136.137 6.79698L133.643 6.76793C133.449 6.74857 133.304 6.70984 133.208 6.65175C133.13 6.57429 133.092 6.47746 133.092 6.36128C133.092 6.24509 133.13 6.14827 133.208 6.07081C133.304 5.97399 133.469 5.88684 133.701 5.80938L138.544 4.32799C138.873 4.21181 139.134 4.13435 139.327 4.09562C139.521 4.05689 139.685 4.03752 139.82 4.03752C140.052 4.03752 140.226 4.1053 140.342 4.24085C140.478 4.35704 140.545 4.541 140.545 4.79274Z" fill="black"/>
<path d="M126.47 43.367V43.0185L126.296 42.9313V26.8974C126.296 24.8835 125.842 23.344 124.933 22.279C124.044 21.2139 122.729 20.6814 120.989 20.6814C119.21 20.6814 117.905 21.0687 117.073 21.8433C116.242 22.5985 115.826 23.4408 115.826 24.3703V26.1713C115.826 26.849 115.613 27.3719 115.188 27.7398C114.782 28.1077 114.25 28.2917 113.593 28.2917C113.013 28.2917 112.549 28.1077 112.201 27.7398C111.872 27.3719 111.708 26.8684 111.708 26.2293C111.708 25.1449 112.094 24.1186 112.868 23.1504C113.641 22.1628 114.763 21.3592 116.232 20.7395C117.721 20.1005 119.5 19.7809 121.569 19.7809C124.43 19.7809 126.557 20.449 127.949 21.7852C129.341 23.102 130.037 24.8738 130.037 27.1008V43.1927C130.037 43.9867 130.173 44.5579 130.443 44.9065C130.714 45.2357 131.062 45.4003 131.488 45.4003C131.952 45.4003 132.3 45.2938 132.532 45.0808C132.764 44.8484 132.928 44.5773 133.025 44.2675C133.083 44.19 133.141 44.1222 133.199 44.0641C133.257 44.0061 133.334 43.977 133.431 43.977C133.547 43.977 133.624 44.0157 133.663 44.0932C133.721 44.1513 133.75 44.2578 133.75 44.4127C133.75 44.7806 133.614 45.1679 133.344 45.5746C133.092 45.9812 132.706 46.3201 132.184 46.5912C131.662 46.8817 131.004 47.0269 130.211 47.0269C128.993 47.0269 128.065 46.7171 127.427 46.0974C126.789 45.4778 126.47 44.5676 126.47 43.367ZM110.345 40.7238C110.345 38.6711 111.224 36.967 112.984 35.6115C114.743 34.256 117.228 33.5782 120.438 33.5782C121.888 33.5782 123.164 33.7234 124.266 34.0139C125.387 34.285 126.402 34.6239 127.311 35.0306L127.079 35.8148C126.19 35.4469 125.252 35.1371 124.266 34.8853C123.28 34.6142 122.197 34.4787 121.018 34.4787C118.871 34.4787 117.209 34.9918 116.029 36.0182C114.869 37.0445 114.289 38.4097 114.289 40.1138C114.289 41.7791 114.782 43.0862 115.768 44.0351C116.774 44.9646 118.059 45.4293 119.626 45.4293C120.979 45.4293 122.294 45.1389 123.57 44.5579C124.865 43.9576 125.977 43.0765 126.905 41.9147L127.34 42.5828C126.257 44.0157 124.885 45.1195 123.222 45.8941C121.578 46.6493 119.819 47.0269 117.943 47.0269C115.681 47.0269 113.844 46.4557 112.433 45.3132C111.041 44.1707 110.345 42.6409 110.345 40.7238Z" fill="black"/>
<path d="M98.9057 20.8557C97.3395 20.8557 96.0731 21.2817 95.1063 22.1337C94.1396 22.9858 93.6562 24.1186 93.6562 25.5322C93.6562 26.423 93.8689 27.2266 94.2943 27.9431C94.7196 28.6402 95.435 29.2793 96.4404 29.8602C97.4459 30.4218 98.8477 30.964 100.646 31.4868C102.85 32.1259 104.6 32.852 105.895 33.6654C107.191 34.4787 108.119 35.4082 108.68 36.4539C109.24 37.4802 109.521 38.6227 109.521 39.8814C109.521 42.0696 108.747 43.8221 107.2 45.1389C105.654 46.4363 103.527 47.085 100.82 47.085C99.6984 47.085 98.7607 46.9688 98.0066 46.7365C97.2719 46.5234 96.6725 46.3104 96.2084 46.0974C95.7637 45.8844 95.406 45.7779 95.1353 45.7779C94.8646 45.7779 94.6036 45.8941 94.3523 46.1265C94.1009 46.3395 93.8689 46.5525 93.6562 46.7655C93.4435 46.9785 93.2405 47.085 93.0471 47.085C92.9311 47.085 92.8248 47.0463 92.7281 46.9688C92.6508 46.8914 92.5734 46.7461 92.4961 46.5331L90.3499 39.62C90.2726 39.3682 90.2435 39.1552 90.2629 38.9809C90.3016 38.7873 90.4079 38.6517 90.5819 38.5743C90.7753 38.4968 90.9396 38.4968 91.075 38.5743C91.2296 38.6517 91.3456 38.7873 91.423 38.9809C92.2351 40.7431 93.1148 42.1374 94.0622 43.1637C95.029 44.19 96.0634 44.9259 97.1655 45.3713C98.2676 45.7973 99.4471 46.0103 100.704 46.0103C102.618 46.0103 104.087 45.5649 105.112 44.6741C106.137 43.7834 106.649 42.6118 106.649 41.1595C106.649 40.2881 106.437 39.4941 106.011 38.7776C105.605 38.0418 104.871 37.3737 103.807 36.7734C102.744 36.1537 101.245 35.5728 99.3117 35.0306C97.2622 34.469 95.6187 33.8106 94.3813 33.0554C93.1438 32.2808 92.2447 31.3803 91.684 30.354C91.1233 29.3083 90.8429 28.1077 90.8429 26.7522C90.8429 25.3773 91.1716 24.167 91.829 23.1213C92.4864 22.0563 93.4145 21.2333 94.6133 20.6523C95.812 20.052 97.2235 19.7519 98.8477 19.7519C99.9304 19.7519 100.839 19.8971 101.574 20.1876C102.309 20.4587 102.908 20.7395 103.372 21.03C103.855 21.3011 104.213 21.4366 104.445 21.4366C104.697 21.4366 104.919 21.3011 105.112 21.03C105.325 20.7589 105.518 20.4877 105.692 20.2166C105.886 19.9455 106.079 19.81 106.272 19.81C106.388 19.81 106.495 19.8487 106.591 19.9262C106.688 20.0036 106.756 20.1489 106.794 20.3619L108.535 26.7231C108.631 27.033 108.67 27.2944 108.651 27.5074C108.651 27.7204 108.544 27.8753 108.332 27.9722C108.158 28.0303 108.003 28.0109 107.867 27.9141C107.751 27.7979 107.635 27.6236 107.519 27.3912C106.417 24.99 105.103 23.3053 103.575 22.3371C102.048 21.3495 100.491 20.8557 98.9057 20.8557Z" fill="black"/>
<path d="M76.8714 19.81C79.4043 19.81 81.6471 20.3909 83.6 21.5528C85.5721 22.7147 87.1189 24.3316 88.2404 26.4036C89.3618 28.4563 89.9225 30.8188 89.9225 33.4911C89.9225 36.144 89.3522 38.4968 88.2114 40.5495C87.09 42.5828 85.5335 44.1803 83.542 45.3422C81.5698 46.5041 79.2882 47.085 76.6973 47.085C74.1644 47.085 71.9216 46.5138 69.9687 45.3713C68.0159 44.2094 66.4787 42.6021 65.3573 40.5495C64.2552 38.4968 63.7042 36.144 63.7042 33.4911C63.7042 30.8188 64.2552 28.4563 65.3573 26.4036C66.4787 24.351 68.0255 22.7437 69.9977 21.5818C71.9699 20.4006 74.2611 19.81 76.8714 19.81ZM78.5245 45.836C80.342 45.623 81.8501 44.9549 83.0489 43.8318C84.2477 42.6893 85.0984 41.1498 85.6012 39.2133C86.1039 37.2575 86.2005 34.9918 85.8912 32.4163C85.5625 29.7634 84.9051 27.5558 83.919 25.7936C82.9329 24.0315 81.6858 22.7534 80.1777 21.9595C78.6695 21.1461 76.9777 20.846 75.1022 21.059C73.246 21.2526 71.7089 21.9304 70.4908 23.0923C69.292 24.2348 68.4509 25.784 67.9675 27.7398C67.5035 29.6762 67.4262 31.9225 67.7355 34.4787C68.0642 37.0735 68.7313 39.252 69.7367 41.0142C70.7421 42.7764 71.9989 44.0738 73.507 44.9065C75.0152 45.7198 76.6877 46.0297 78.5245 45.836Z" fill="black"/>
<path d="M11.311 47.5643L11.2385 47.7095C11.0452 47.9032 10.7793 48 10.441 48C10.1026 48 8.91831 47.5885 6.88813 46.7655C9.64338 38.2935 13.7521 28.2239 19.2142 16.5567L25.8849 2.46899C24.7248 1.93646 23.1296 1.6702 21.0994 1.6702C18.4892 1.6702 15.6614 2.29955 12.6161 3.55825C9.61921 4.76853 6.9848 6.46294 4.71293 8.64145C2.48939 10.82 1.37763 13.0953 1.37763 15.4675C1.37763 18.2753 2.73108 20.5507 5.438 22.2935L4.06037 22.947C1.35346 21.059 0 18.6384 0 15.6853C0 12.9743 1.18427 10.4327 3.55282 8.06051C5.92137 5.63994 8.82164 3.7761 12.2536 2.46899C15.7339 1.11346 19.1901 0.435701 22.6221 0.435701C24.5072 0.435701 26.7066 0.8472 29.2202 1.6702C31.7821 2.49319 33.3289 3.43722 33.8606 4.50227C33.0388 6.97126 28.3259 16.0968 19.7218 31.879C28.2776 20.2118 33.9089 12.9743 36.6158 10.1664C43.2381 3.3888 48.6278 0 52.7848 0C54.6216 0 56.2409 0.556732 57.6427 1.6702C59.0445 2.78366 60.1321 4.2118 60.9055 5.95461C60.6638 8.8593 59.7938 11.5461 58.2953 14.0151C56.7968 16.4841 54.9358 18.5658 52.7123 20.2602C50.5371 21.9062 48.0477 23.3343 45.2441 24.5446C42.4405 25.7549 39.6611 26.6505 36.9059 27.2315C34.1989 27.8124 31.5404 28.1755 28.9301 28.3207C30.6703 30.9349 32.9422 33.3313 35.7458 35.5098C38.5493 37.6399 41.3288 39.2859 44.084 40.4478C47.226 39.4312 52.4706 36.5265 59.8179 31.7337L65.9085 27.7398L66.416 28.6838L60.543 32.6778C59.0445 33.6944 57.256 34.9289 55.1775 36.3812C53.1473 37.7852 51.5764 38.8744 50.4646 39.649C49.4012 40.3752 48.1444 41.2224 46.6942 42.1906C45.2441 43.1588 44.084 43.885 43.2139 44.3691C42.3922 44.8533 41.4738 45.3132 40.4587 45.7489C39.4919 46.233 38.646 46.5719 37.921 46.7655C37.1959 46.9592 36.495 47.056 35.8183 47.056C33.6431 47.056 31.5645 45.1921 29.5827 41.4644C27.6492 37.6883 26.9966 33.1861 27.625 27.9576L28.3501 27.4493C31.7337 26.9168 34.8998 25.8759 37.8484 24.3268C40.8454 22.7292 43.2864 20.9864 45.1716 19.0983C47.1051 17.1619 48.7728 15.1528 50.1746 13.0711C51.5764 10.941 52.5915 9.07716 53.2198 7.47958C53.8482 5.83359 54.1624 4.55068 54.1624 3.63086C54.1624 2.17852 53.4857 1.45234 52.1322 1.45234C44.0115 1.45234 30.8878 16.0484 12.7612 45.2405C12.3261 45.9667 12.0361 46.4508 11.8911 46.6929C11.6011 47.177 11.4077 47.4675 11.311 47.5643Z" fill="black"/>
</svg>
